# xmcd
#
# Track frame offsets: 
#        150
#        18622
#        35942
#        53935
#        74007
#        90937
#        107725
#        129475
#        146642
#        163232
#
# Disc length: 2433 seconds
#
# Revision: 1
# Processed by: cddbd v1.5.2PL0 Copyright (c) Steve Scherf et al.
# Submitted via: ExactAudioCopyFreeDBPlugin 1.0
#
DISCID=94097f0a
DTITLE=Mikki Bleu - I Promise
DYEAR=1989
DGENRE=Funk
TTITLE0=I Promise
TTITLE1=Lock-N-Key
TTITLE2=Something Real
TTITLE3=Every Little Thing
TTITLE4=Knocks Me Off My Feet
TTITLE5=Move Your Feet (Let's Dance)
TTITLE6=Nothin' But The Best
TTITLE7=Until
TTITLE8=Can He Rock You Like This
TTITLE9=Stand
EXTD=
EXTT0=
EXTT1=
EXTT2=
EXTT3=
EXTT4=
EXTT5=
EXTT6=
EXTT7=
EXTT8=
EXTT9=
PLAYORDER=
